<?xml version="1.0" encoding="UTF-8"?>
<!DOCTYPE svg PUBLIC "-//W3C//DTD SVG 1.1//EN" "http://www.w3.org/Graphics/SVG/1.1/DTD/svg11.dtd">
<!-- Creator: CorelDRAW 2020 (64-Bit) -->
<svg xmlns="http://www.w3.org/2000/svg" xml:space="preserve" width="0.989614in" height="0.735472in" version="1.1" style="shape-rendering:geometricPrecision; text-rendering:geometricPrecision; image-rendering:optimizeQuality; fill-rule:evenodd; clip-rule:evenodd"
viewBox="0 0 156.25 116.12"
 xmlns:xlink="http://www.w3.org/1999/xlink"
 xmlns:xodm="http://www.corel.com/coreldraw/odm/2003">
 <defs>
  <style type="text/css">
   <![CDATA[
    .str0 {stroke:black;stroke-width:2.19;stroke-miterlimit:2.61313}
    .fil1 {fill:none}
    .fil0 {fill:#1A1A1A}
   ]]>
  </style>
 </defs>
 <rect class="fil0" x="-1147.92" y="-1949.85" width="1305.35" height="1846.14"/>
 <g id="Layer_x0020_1">
  <metadata id="CorelCorpID_0Corel-Layer"/>
  <g id="_1112298336">
   <polygon class="fil1 str0" points="62.87,14.22 62.87,22.68 25.93,37.43 62.87,52.38 62.87,60.84 16.25,41.32 16.25,33.44 "/>
   <path class="fil1 str0" d="M10.32 4.23c5.21,-6.52 17.52,-1.15 21.96,0.81 16.06,6.63 2.44,3.4 11.59,8.51 -1.48,-12.71 18.21,-5.91 11.92,1.72 -11.29,7.16 -19.66,1.18 -27.83,-0.45 -9.7,-1.93 -23.34,-0.74 -17.32,12.37 2.37,-3.76 0.96,-5.33 8.06,-7.13 5.46,1.98 7.44,3.69 5.29,8.99 -13.73,9.38 -27.35,-4.25 -21.51,-15.04 7.26,-13.42 23.24,-6.06 31.37,-3.21 -2.75,-6.57 -16.55,-6.92 -23.53,-6.55z"/>
  </g>
  <path class="fil1 str0" d="M97.87 51.97l46.62 19.22 0 7.88 -13.28 5.56c3.27,-1.04 6.71,-1.1 9.66,1.2 -6.7,1.05 -19.6,4.2 -20.05,11.35 6.74,-4.51 19.4,-15.13 30.63,-3.15 9.02,9.63 0.63,26.08 -15.38,19.46 -3.75,-4.87 -2.44,-6.99 2.06,-10.09 7.29,0.37 6.47,2.22 9.93,5.52 1.39,-14.37 -11.86,-12.79 -20.37,-8.89 -7.18,3.3 -13.12,11 -26.1,6.11 -8.42,-6.38 7.92,-17.2 10.68,-4.15 6.96,-6.98 -4.83,-0.97 8.15,-10.88 1.55,-1.26 4.32,-3.48 7.53,-5.12l-30.09 12.59 0 -8.46 36.84 -14.95 -36.84 -14.75 0 -8.46z"/>
  <polygon class="fil1 str0" points="56.48,30.93 105.92,30.74 105.93,36.58 84.58,36.85 84.64,85.51 76.79,85.49 76.73,36.79 56.32,36.58 "/>
 </g>
</svg>
