<?xml version="1.0" encoding="UTF-8"?>
<!DOCTYPE svg PUBLIC "-//W3C//DTD SVG 1.1//EN" "http://www.w3.org/Graphics/SVG/1.1/DTD/svg11.dtd">
<!-- Creator: CorelDRAW 2020 (64-Bit) -->
<?xml-stylesheet href="logo tangodevs.css" type="text/css"?>
<svg xmlns="http://www.w3.org/2000/svg" xml:space="preserve" width="0.754465in" height="0.552016in" version="1.1" style="shape-rendering:geometricPrecision; text-rendering:geometricPrecision; image-rendering:optimizeQuality; fill-rule:evenodd; clip-rule:evenodd"
viewBox="0 0 49.59 36.28"
 xmlns:xlink="http://www.w3.org/1999/xlink"
 xmlns:xodm="http://www.corel.com/coreldraw/odm/2003">
 <rect class="fil0" x="-649.13" y="-784.36" width="543.43" height="768.56"/>
 <g id="Layer_x0020_1">
  <metadata id="CorelCorpID_0Corel-Layer"/>
  <g>
   <path class="fil1" d="M19.58 6.26l0 2.31 0 0.92 -0.87 0.35 -6.91 2.76 6.93 2.8 0.86 0.35 0 0.92 0 2.31 0 2.06 -1.89 -0.79 -12.71 -5.32 -0.85 -0.35 0 -0.91 0 -2.15 0 -0.37c-0.02,-0 -0.03,-0.01 -0.05,-0.01 -0.05,-0.01 -0.09,-0.02 -0.14,-0.03l-0.16 0.26 -0.15 -0.34c-0.74,-0.21 -1.4,-0.59 -1.95,-1.07 -0.66,-0.58 -1.17,-1.33 -1.44,-2.16 -0.37,-1.13 -0.33,-2.38 0.31,-3.55 0.41,-0.76 0.88,-1.34 1.4,-1.77l0.88 -1.1c1.1,-1.38 2.78,-1.54 4.38,-1.25 1.34,0.24 2.57,0.78 3.23,1.07l-0 0c0.92,0.38 1.6,0.72 2.09,1.02 0.15,-0.14 0.32,-0.26 0.5,-0.36 0.77,-0.45 1.74,-0.48 2.59,-0.23 0.83,0.25 1.61,0.79 2.04,1.5 0.32,0.54 0.46,1.14 0.32,1.76l1.62 -0.67 0 2.04zm-1.37 0l0 2.31 -10.07 4.02 10.07 4.08 0 2.31 -12.71 -5.32 0 -2.15 12.71 -5.24zm-5.18 -1.49c-0.4,-3.47 4.97,-1.61 3.25,0.47 -3.08,1.95 -5.36,0.32 -7.59,-0.12 -2.64,-0.53 -6.36,-0.2 -4.72,3.37 0.65,-1.03 0.26,-1.45 2.2,-1.95 1.49,0.54 2.03,1.01 1.44,2.45 -3.74,2.56 -7.46,-1.16 -5.87,-4.1 1.98,-3.66 6.34,-1.65 8.55,-0.88 -0.75,-1.79 -4.51,-1.89 -6.42,-1.79 1.42,-1.78 4.78,-0.31 5.99,0.22 4.38,1.81 0.67,0.93 3.16,2.32zm20.58 27.73c-2.3,-1.74 2.16,-4.69 2.91,-1.13 1.9,-1.9 -1.32,-0.27 2.22,-2.97 0.42,-0.34 1.18,-0.95 2.05,-1.4l-8.2 3.43 0 -2.31 10.05 -4.08 -10.05 -4.02 0 -2.31 12.71 5.24 0 2.15 -3.62 1.52c0.89,-0.28 1.83,-0.3 2.64,0.33 -1.83,0.29 -5.34,1.15 -5.47,3.1 1.84,-1.23 5.29,-4.13 8.35,-0.86 2.46,2.63 0.17,7.11 -4.19,5.31 -1.02,-1.33 -0.67,-1.91 0.56,-2.75 1.99,0.1 1.77,0.61 2.71,1.5 0.38,-3.92 -3.23,-3.49 -5.56,-2.42 -1.96,0.9 -3.58,3 -7.12,1.67zm-14.36 -20.73l13.48 -0.05 0 1.59 -5.82 0.07 0.02 13.27 -2.14 -0.01 -0.02 -13.28 -5.57 -0.06 0.05 -1.54zm-10.08 -3.26l2.66 -1.1c-0.69,-0.14 -1.34,-0.35 -1.98,-0.55 -0.4,-0.13 -0.79,-0.25 -1.17,-0.34 0.04,0.05 0.07,0.09 0.11,0.14l0 0.01c0.37,0.54 0.5,1.13 0.38,1.85zm23.94 7.95l12.71 5.24 0.85 0.35 0 0.91 0 2.15 0 0.91 -0.85 0.35 -0.02 0.01 0.58 0.45c0.6,0.32 1.21,0.78 1.81,1.42 1.04,1.11 1.46,2.48 1.37,3.76 -0.06,0.82 -0.33,1.61 -0.79,2.29 -0.35,0.52 -0.81,0.96 -1.35,1.3l-0.06 0.57 -0.36 -0.35c-0.05,0.02 -0.1,0.05 -0.15,0.07 -1.18,0.51 -2.67,0.56 -4.36,-0.14l-0.56 -0.43c-0.8,-1.04 -1.04,-1.89 -0.8,-2.75l0 -0.01c0.05,-0.19 0.12,-0.37 0.22,-0.53 -0.02,0.01 -0.04,0.02 -0.06,0.03 -0.37,0.17 -0.77,0.42 -1.19,0.68 -1.75,1.1 -3.64,2.28 -6.98,1.02l-0.34 -0.19c-0.53,-0.4 -0.86,-0.85 -1.04,-1.32l-0.52 0.22 0 -2.06 0 -2.31 0 -0.92 0.86 -0.35 6.9 -2.8 -6.9 -2.76 -0.86 -0.34 0 -0.92 0 -2.31 0 -2.04 1.89 0.78zm-13.86 -6.06l13.48 -0.05 1.36 -0.01 0 1.37 0 1.59 0 1.35 -1.35 0.02 -4.47 0.06 0.01 11.92 0 1.37 -1.37 -0 -2.14 -0.01 -1.36 -0 -0 -1.36 -0.01 -11.93 -4.22 -0.04 -1.39 -0.01 0.04 -1.39 0.05 -1.54 0.04 -1.32 1.32 -0z"/>
  </g>
 </g>
</svg>
