<?xml version="1.0" encoding="UTF-8"?>
<!DOCTYPE svg PUBLIC "-//W3C//DTD SVG 1.1//EN" "http://www.w3.org/Graphics/SVG/1.1/DTD/svg11.dtd">
<!-- Creator: CorelDRAW 2020 (64-Bit) -->
<svg xmlns="http://www.w3.org/2000/svg" xml:space="preserve" width="5.59243in" height="5.51032in" version="1.1" style="shape-rendering:geometricPrecision; text-rendering:geometricPrecision; image-rendering:optimizeQuality; fill-rule:evenodd; clip-rule:evenodd"
viewBox="0 0 7156.31 7051.24"
 xmlns:xlink="http://www.w3.org/1999/xlink"
 xmlns:xodm="http://www.corel.com/coreldraw/odm/2003">
 <defs>
  <style type="text/css">
   <![CDATA[
    .fil0 {fill:white}
   ]]>
  </style>
 </defs>
 <g id="Layer_x0020_1">
  <metadata id="CorelCorpID_0Corel-Layer"/>
  <g id="_1548029248">
   <path class="fil0" d="M636.87 5394.51c60.24,56.49 197.43,208.36 262.31,277.23 68.08,72.27 755.07,796.41 785.06,835.96l-555.38 133.73c-16.68,4.34 -28.14,5.23 -45.42,9.1l-604.58 143.93c-31.12,8.09 -61.87,13.46 -92.92,21.5 -28.5,7.37 -65.25,19.43 -92.57,23.02 -18.75,2.46 -28.49,5.82 -45.34,10.19 -8.72,2.27 -13.77,3.51 -22.47,5.88 -13.63,3.73 -14.65,5.24 -26.5,3.9l437.8 -1464.45zm1599.77 -436.41c-11.15,18.11 -211.53,700.3 -217.07,718.81l-202.62 676.16c-2.73,8.79 -11.46,36.07 -12.58,44.88 -10.89,-8.41 -23.41,-23.83 -31.75,-32.74l-225.78 -238.98c-84.37,-90.29 -172.39,-183.17 -257.59,-274.35l-518.18 -548.05 182.64 -45.8c30.33,-7.74 60.95,-11.03 90.75,-19.42 9.97,-2.81 11.76,-4.76 22.14,-7.41l1121.32 -266.68c15.67,-3.31 32.69,-11.6 48.72,-6.41zm-278.49 1483.85l433.75 -1445.63 1031.39 1098.67 -641.14 153.88c-15.74,4.09 -29.66,4.89 -45.44,9.05l-182.89 45c-16,4.04 -29.43,4.83 -45.44,9.07 -60.81,16.11 -121.75,28.96 -182.9,44.9l-183.34 42.34c-31.94,8.43 -60.51,15.9 -92.47,24.11 -15.56,3.99 -29.55,4.87 -45.44,9.07 -16,4.23 -30.48,10.75 -46.09,9.52zm2015.22 -1892.95c-13.17,21.39 -345.36,1153.52 -405.28,1344.43l-28.07 90.38c-8.97,-14.66 -47.03,-51.64 -62.62,-68.31l-448.48 -475.99c-12.04,-12.85 -495.83,-532.21 -513.03,-543.88 11.47,-10.38 71.25,-19.32 89.94,-23.2l817.39 -196.36c30.33,-7.74 60.94,-11.02 90.75,-19.42l321.04 -76.62c30.91,-6.44 103.44,-30.47 138.36,-31.02zm-1774.13 241.09l3.04 7.75 -10.73 1.13c-31.49,8.35 -60.24,15.71 -92.01,24.07l-464.44 108.26c-121.33,31.53 -256.83,59.16 -371.13,89.12 -16.18,4.24 -31.37,9.21 -47.49,12.31 -48.66,9.37 -108.46,28.57 -137.88,32.81l-93.29 19.81c-30.26,8.02 -62.34,18.19 -92.49,24.1 -20.1,3.94 -29.51,5.16 -47.88,9.99 -29.64,7.79 -108.99,29.39 -134.85,31.32l443.04 -1470.89 1046.1 1110.22zm558.6 -1570.35l-26.33 90.01c-9.76,32.22 -18.51,62.97 -27.89,92.98 -74.75,239.37 -146.1,491.12 -219.29,732.46l-109.45 366.19c-9.55,30.57 -47.06,167.38 -57.05,183.59 -8.96,-14.66 -47.03,-51.64 -62.61,-68.31l-985.1 -1043.82c11.52,-10.42 73.71,-19.83 92.46,-23.76l253.49 -59.65c10.72,-3.02 13.12,-5.28 24.66,-7.98 31.21,-7.32 63.06,-11.42 93.28,-19.93 9.97,-2.81 11.76,-4.76 22.14,-7.41 8.29,-2.12 14.18,-2.98 22.7,-4.8l326.05 -77.85c44.81,-11.45 61.95,-12.21 115.43,-27.27 34.3,-9.66 68.98,-12.8 115.45,-27.18 32.78,-10.15 72.12,-12.57 115.47,-27.09l258.44 -61.2c16.78,-3.52 31.68,-8.73 48.16,-8.99zm1376.16 1376.77l1022.91 1087.76 -1004.8 240.33c-15.64,4.05 -29.61,4.87 -45.44,9.06l-409.76 96.23c0.61,-21.69 201.05,-675.98 213.49,-718.74 34.45,-118.52 70.07,-240.14 107.46,-357.75 37.53,-118.04 67.57,-241.13 107.18,-357.15 -0.61,-9.51 -7.87,6.9 1.04,-11.23 11.21,8.58 5.77,-0.34 7.91,11.49zm1575.01 -461.65l-216.6 718.71c-8.84,28.41 -17.46,58.63 -27.02,90.15l-80.71 270.39c-7.9,29.14 -17.54,59.03 -26.96,90.14l-80.97 270.44 -643.38 -682.04c-28.4,-30.39 -375.22,-402.09 -389.93,-412.08l228.03 -55.46c16.35,-3.48 29.01,-6.23 45.37,-9.72 8.52,-1.82 14.41,-2.69 22.7,-4.8l70.02 -17.71c15.53,-3.32 30.44,-5.55 45.37,-9.76 9.97,-2.81 11.76,-4.76 22.14,-7.41 8.29,-2.12 14.18,-2.98 22.7,-4.8l549.31 -130.93c32.28,-6.72 61.69,-11.55 92.83,-21.98 29.58,-9.9 169.78,-37.16 206.04,-47.37 49.33,-13.89 80.2,-17.62 112.89,-26.83 16.29,-4.59 30.71,-14.62 48.17,-8.96zm-2798.92 -838.61c87.08,86.1 172.3,183.34 257.21,273.5 105.69,112.23 763.4,805.2 768.86,820.69 -30.18,9.17 -60.67,13.56 -92.28,21.85 -116.16,30.47 -248.52,56.47 -366.12,87.86 -16,4.27 -29.5,5.06 -45.43,9.11l-957.48 229.31c-2.1,-12.91 5.16,-28.36 10.25,-44.57 4.99,-15.88 9.06,-30.05 13.41,-45.1 94.75,-328.07 199.77,-662.94 296.61,-991.59 35.03,-118.88 69.93,-242.19 108.1,-360.24 -0.24,-7.49 -7.79,4.4 1.24,-8.33 14.98,7.69 3.58,0.78 5.63,7.51zm1584.48 -485.61c-12.48,23.34 -172.31,571.73 -193.51,639.94l-55.2 183.2c-8.37,31.55 -18.92,63.87 -28.02,93.01 -19.31,61.82 -35.71,120.51 -54.87,183.12l-95.49 318.38c-4.75,15.86 -11.03,32.87 -12.91,47.58 -16.55,-11.24 -516.14,-545.85 -526.4,-556.84 -87.39,-93.52 -174.92,-185.9 -261.68,-278.75 -87.21,-93.34 -174.04,-186.67 -262.69,-278.53 8.95,-3.85 13.01,-3.62 22.3,-6.68l255.58 -62.21c31.21,-7.32 63.06,-11.42 93.28,-19.92l115.37 -27.56c51.47,-15.94 76.67,-16.26 115.45,-27.18 49.72,-14.01 85.12,-18.67 117.93,-27.91 50.38,-14.19 80.76,-17.44 117.93,-27.91 75.4,-21.24 154.43,-36.69 230.85,-54.6l255.48 -62.73c32.67,-9.2 68.48,-13.99 117.93,-27.91 14.74,-4.15 33.39,-11.48 48.69,-6.52zm-3080.42 560.44c-28.59,4.38 -61.1,15.81 -90.13,22.95l-89.98 19.8c-1.43,-17.11 277.9,-931.49 322.36,-1080.74 18.04,-60.56 35.53,-119.72 53.79,-180.36 17.07,-56.73 33.96,-123.44 55.16,-179.58l1028.48 1094.21c-59.04,15.1 -120.51,29.61 -180.57,44.64l-231.32 51.98c-16.23,3.89 -28.86,7.5 -44.97,11.67l-90.43 20.78c-31.96,8.42 -60.51,15.77 -92.47,24.09 -15.71,4.09 -29.62,4.86 -45.45,9.05l-92.5 23.92c-45.56,8.7 -109.94,28.25 -135.53,31.6l-93.27 19.85c-56.38,13.73 -227.53,59.13 -273.18,66.13zm1849.42 -1838.93c-6.24,11.66 -10.65,31.55 -14.81,45.36 -29.24,96.94 -70.12,224.05 -94.39,315.5l-53.65 180.23c-16.8,59.78 -36.02,118.98 -54.67,180.44l-80.71 270.39c-22.69,83.71 -58.25,188.38 -80.48,270.34l-55.54 180.64c-10.76,-8.3 -23.57,-23.92 -31.8,-32.73l-483.38 -513.33c-14.28,-15.09 -497.44,-534.12 -515.06,-546.09 11.62,-10.52 71.07,-19.15 89.94,-23.15l365.83 -89.09c30.54,-7.8 63.75,-11.02 93.23,-20.16 42.59,-13.18 87.48,-18.96 112.89,-26.83l802.61 -191.54zm2171.11 4088.92c-2.21,-9.64 0.03,-15.16 3.35,-25.67l103.07 -343.64c15.05,-52.25 316.67,-1069.25 330.02,-1100.15 44.34,40.25 91.51,96.99 133.83,141.25 262.29,274.41 525.77,559.01 786.84,835.98 28.09,29.79 111.89,111.22 127.9,138.18 -19.9,1.48 -69.9,17.18 -93.06,23.32l-742.9 174.51c-31.77,6.98 -60.65,16.26 -92.47,24.15l-419.16 98.33c-15.79,4.13 -29.61,4.9 -45.44,9.08 -28.15,7.44 -66.87,14.82 -91.97,24.66zm-437.36 -1485.59c-103.34,27.55 -222.1,50.18 -326.14,77.39l-464.13 109.37 441.8 -1469.75 1049.17 1115.89c-30.96,6.49 -61.51,16.3 -93.37,24.25l-140.82 31.43c-16.14,4.32 -28.74,7.53 -44.98,11.78l-281.17 65.57c-32.08,8.54 -60.34,15.81 -92.45,24.27 -16.41,4.32 -31.25,5.36 -47.92,9.8zm-2003.32 -1139.78c0.27,-18.18 92.43,-315.57 105.74,-360.76 35.28,-119.73 72.09,-240.06 107.87,-360.53l188.8 -631.04c8.03,-27.06 17.64,-65.72 27.94,-90.42 40.86,35.33 92.52,97.31 131.02,138.21l774.49 822.71c11.02,11.7 119.61,121.55 125.17,136.59 -87.81,24.46 -187.82,44.16 -275.84,66.45l-90.44 20.74c-31.13,8.07 -61.81,13.37 -92.93,21.46l-685.05 161.74c-38.4,9.92 -294.92,75.45 -316.77,74.85zm-1256.03 -1267.94l449.24 -1489.97 1064.33 1130.86 -94.53 23c-17.08,4.46 -30.4,7.96 -47.48,12.41l-521.92 123.27c-123.8,32.43 -254.49,58.64 -378.62,91.08l-47.91 9.86c-15.8,3.49 -29.27,7.63 -44.97,11.81 -16.65,4.44 -31.54,5.51 -47.92,9.83l-187.85 46.53c-16.61,4.42 -31.47,5.46 -47.91,9.83 -18.31,4.87 -76.65,23.92 -94.47,21.49zm345.17 -1693.2c-16.66,25.75 -63.27,193.67 -71.38,223.57 -10.16,37.45 -23.03,71.83 -33.13,109.92 -10.15,38.26 -22.97,71.65 -33.12,109.92 -19.75,74.44 -45.38,145.58 -66.25,219.84l-97.41 326.7c-20.87,74.25 -46.5,145.4 -66.25,219.84 -19.58,73.79 -46.33,146.35 -66.25,219.84 -9.65,35.61 -23.05,74.08 -33.11,109.92 -20.8,74.02 -43.29,144.84 -66.02,219.79l-919.94 3065.57c-32.95,112.61 -69.62,217.88 -99.3,329.74 -28.59,107.76 -67.06,219.23 -98.58,326.95l-131.8 439.53c-91.03,291.5 -173.08,587.49 -263.91,879.12 -11.04,35.46 -23.51,74.98 -32.64,109.81 -9.42,35.94 -4.05,70.53 34.45,95.44 34.96,22.63 85.13,5.67 115.07,-4.35 35.87,-12.02 189.31,-40.44 221.06,-51.07 37.39,-12.52 72.55,-16.03 110.49,-25.72 11.68,-2.98 15,-5.78 27.15,-8.62l110.38 -26.25c36.43,-9.31 75,-13.83 110.49,-25.72 9.81,-3.28 17.24,-4.25 27.62,-6.45l389.08 -91.29c10.18,-2.18 17.81,-3.35 27.74,-5.88 11.68,-2.98 15,-5.78 27.15,-8.62l389.1 -91.19c38.72,-8.3 71.93,-18.05 110.37,-26.29 39.55,-8.48 73.61,-18.24 112.89,-26.84 22.9,-5.01 32.34,-3.76 55.53,-11.54 39.18,-13.13 172.32,-42.83 220.66,-52.89l167.8 -41.26c27.43,-5.79 56.51,-9.44 83.07,-18.33 11.84,-3.96 14.49,-5.34 27.29,-8 19.71,-4.11 35.75,-7.62 55.46,-11.84 10.18,-2.18 17.82,-3.35 27.74,-5.88l192.99 -46.7c10.46,-2.24 17.29,-3.72 27.74,-5.89 13.69,-2.85 16.91,-4.85 29.75,-8.82 45.1,-13.96 187.1,-39.18 221.04,-51.15 37.42,-13.2 72.92,-14.86 110.54,-25.46l584.51 -138.94c11.83,-3.96 14.49,-5.34 27.29,-8l220.73 -52.6c18.82,-4.8 36.24,-7.7 55.47,-11.82l940.92 -222.73c21.59,-4.59 36.42,-10.6 57.43,-14.97l83.18 -17.84c11.46,-3.22 14.77,-5.79 27.17,-8.52l193.59 -43.94c26.76,-5.66 54.69,-16.82 82.67,-20.2 22.7,-2.74 35.31,-8.26 57.43,-14.97 37.27,-11.31 74.71,-12.35 110.59,-25.24 35.9,-12.89 73.37,-13.73 110.59,-25.25 35.67,-11.04 74.48,-15.99 110.41,-26.11 11.46,-3.22 14.76,-5.79 27.17,-8.52 10.35,-2.28 17.32,-3.61 27.75,-5.84 20.41,-4.37 37.69,-7.56 57.99,-12.32l137.54 -34.82c51.82,-14.59 177.75,-36.07 221.16,-50.61 52.56,-17.6 164.32,-37.46 223.38,-52.55l193 -46.7c111.66,-23.93 221.94,-55.47 333.62,-79.41 18.69,-4.01 37.48,-6.86 55.45,-11.92 73.36,-20.66 137.3,-19.21 169.7,-69.28 41.19,-63.66 -44.8,-128.26 -91.42,-178.14 -572.46,-612.55 -1150.3,-1216.66 -1722.95,-1829.53 -208.26,-222.89 -417.96,-444.9 -628.07,-666.87 -208.67,-220.46 -416.19,-444.49 -624.84,-664.93l-1841.02 -1954.51c-15.55,-16.64 -31.26,-34.12 -51.2,-47.02 -32.22,-20.85 -82.47,-6.76 -102.8,24.67z"/>
   <path class="fil0" d="M4125.05 4596.25c6.2,-4.31 -1.13,-8.66 8.95,0.25 -2.14,-11.82 3.29,-2.91 -7.91,-11.49 -8.91,18.14 -1.65,1.72 -1.04,11.23z"/>
   <path class="fil0" d="M2903.21 3297.06c3.35,-5.34 1.16,-4.53 6.87,-0.83 -2.06,-6.73 9.35,0.19 -5.63,-7.51 -9.03,12.73 -1.48,0.84 -1.24,8.33z"/>
   <path class="fil0" d="M2191.55 4798.96l10.73 -1.13 -3.04 -7.75c-3.74,10.56 0.18,3.92 -7.68,8.88z"/>
  </g>
 </g>
</svg>
