<?xml version="1.0" encoding="UTF-8"?>
<!DOCTYPE svg PUBLIC "-//W3C//DTD SVG 1.1//EN" "http://www.w3.org/Graphics/SVG/1.1/DTD/svg11.dtd">
<!-- Creator: CorelDRAW 2020 (64-Bit) -->
<svg xmlns="http://www.w3.org/2000/svg" xml:space="preserve" width="1.09006in" height="0.737709in" version="1.1" style="shape-rendering:geometricPrecision; text-rendering:geometricPrecision; image-rendering:optimizeQuality; fill-rule:evenodd; clip-rule:evenodd"
viewBox="0 0 266.09 180.08"
 xmlns:xlink="http://www.w3.org/1999/xlink"
 xmlns:xodm="http://www.corel.com/coreldraw/odm/2003">
 <defs>
  <style type="text/css">
   <![CDATA[
    .str0 {stroke:#990000;stroke-width:4.07;stroke-miterlimit:2.61313}
    .str1 {stroke:black;stroke-width:1.7;stroke-miterlimit:2.61313}
    .fil1 {fill:none}
    .fil0 {fill:#1A1A1A}
   ]]>
  </style>
 </defs>
 <rect class="fil0" x="-1554.83" y="-2890.72" width="2018.23" height="2854.35"/>
 <g id="Layer_x0020_1">
  <metadata id="CorelCorpID_0Corel-Layer"/>
  <polygon class="fil1 str0" points="99.94,48.35 131.51,48.66 131.6,123.96 143.74,124 143.65,48.76 176.65,48.34 176.64,39.31 100.2,39.6 "/>
  <path class="fil1" d="M243.16 134.11c-10.36,1.62 -30.3,6.5 -31,17.55 10.41,-6.97 30,-23.4 47.36,-4.87 13.95,14.89 0.97,40.32 -23.77,30.09 -5.8,-7.53 -3.77,-10.81 3.18,-15.6 11.27,0.57 10.01,3.44 15.36,8.53 2.15,-22.23 -18.33,-19.78 -31.5,-13.74 -11.1,5.09 -20.29,17 -40.35,9.45 -13.02,-9.87 12.25,-26.59 16.51,-6.42 10.76,-10.79 -7.47,-1.51 12.61,-16.83 5.48,-4.43 20.71,-16.63 31.61,-8.16z"/>
  <g id="_1308372944">
   <path class="fil1" d="M15.11 5.69c10.79,-0.57 32.12,-0.03 36.38,10.13 -12.57,-4.4 -37.28,-15.78 -48.5,4.97 -9.03,16.68 12.04,37.76 33.26,23.26 3.32,-8.18 0.25,-10.83 -8.18,-13.89 -10.98,2.79 -8.81,5.21 -12.47,11.03 -9.3,-20.28 11.79,-22.11 26.78,-19.13 12.65,2.52 25.59,11.77 43.04,0.7 9.72,-11.81 -20.71,-22.31 -18.43,-2.67 -14.14,-7.9 6.91,-2.9 -17.92,-13.15 -6.86,-3.03 -25.89,-11.34 -33.95,-1.25z"/>
  </g>
  <polygon class="fil1 str1" points="96.35,21.13 96.35,34.21 39.24,57.02 96.35,80.13 96.35,93.21 24.27,63.04 24.27,50.86 "/>
  <path class="fil1 str1" d="M15.11 5.69c8.06,-10.08 27.09,-1.78 33.95,1.25 24.83,10.25 3.78,5.26 17.92,13.15 -2.28,-19.65 28.15,-9.14 18.43,2.67 -17.45,11.07 -30.39,1.82 -43.04,-0.7 -15,-2.99 -36.08,-1.15 -26.78,19.13 3.66,-5.82 1.49,-8.24 12.47,-11.03 8.44,3.06 11.5,5.71 8.18,13.89 -21.22,14.5 -42.29,-6.58 -33.26,-23.26 11.22,-20.75 35.93,-9.37 48.5,-4.97 -4.26,-10.16 -25.58,-10.7 -36.38,-10.13z"/>
  <path class="fil1 str1" d="M176.68 81.75l72.08 29.72 0 12.19 -20.54 8.6c5.05,-1.62 10.38,-1.69 14.94,1.86 -10.36,1.62 -30.3,6.5 -31,17.55 10.41,-6.97 30,-23.4 47.36,-4.87 13.95,14.89 0.97,40.32 -23.77,30.09 -5.8,-7.53 -3.77,-10.81 3.18,-15.6 11.27,0.57 10.01,3.44 15.36,8.53 2.15,-22.23 -18.33,-19.78 -31.5,-13.74 -11.1,5.09 -20.29,17 -40.35,9.45 -13.02,-9.87 12.25,-26.59 16.51,-6.42 10.76,-10.79 -7.47,-1.51 12.61,-16.83 2.4,-1.94 6.68,-5.38 11.64,-7.91l-46.52 19.47 0 -13.08 56.96 -23.11 -56.96 -22.81 0 -13.08z"/>
  <polygon class="fil1" points="100.2,39.6 176.64,39.31 176.65,48.34 143.65,48.76 143.74,124 131.6,123.96 131.51,48.66 99.94,48.35 "/>
 </g>
</svg>
